<?xml version="1.0" encoding="UTF-8"?>
<svg width="12px" height="11px" viewBox="0 0 12 11" version="1.1" xmlns="http://www.w3.org/2000/svg" xmlns:xlink="http://www.w3.org/1999/xlink">
    <!-- Generator: Sketch 53.2 (72643) - https://sketchapp.com -->
    <title>关 闭</title>
    <desc>Created with Sketch.</desc>
    <g id="Page-1" stroke="none" stroke-width="1" fill="none" fill-rule="evenodd">
        <g id="影像内页" transform="translate(-1382.000000, -37.000000)" fill="#E6E6E6" fill-rule="nonzero">
            <g id="关-闭" transform="translate(1382.000000, 36.500000)">
                <path d="M11.541346,11.5 C11.4192975,11.499931 11.3022759,11.4554358 11.2160154,11.3762994 L0.134735411,1.21982776 C-0.0449118036,1.05517333 -0.0449118036,0.788167339 0.134735411,0.623490823 C0.314382625,0.458836392 0.605701133,0.458836392 0.785372433,0.623490823 L11.8675678,10.7808898 C11.9975775,10.9020009 12.0358187,11.0826939 11.9646418,11.2395731 C11.8935077,11.3964923 11.7267406,11.4990935 11.541346,11.5" id="路径"></path>
                <path d="M0.4617968,11.4999961 C0.275101057,11.5007318 0.106451462,11.3979047 0.0349988961,11.2397738 C-0.0364464972,11.0816392 0.00354718236,10.8995944 0.136194915,10.7791458 L11.2293963,0.609896699 C11.4114141,0.458122475 11.6914693,0.464267715 11.8653134,0.623911385 C12.0392056,0.783532953 12.0454987,1.04030684 11.8796356,1.20697996 L0.787471024,11.3761628 C0.7011536,11.455447 0.58398324,11.4999995 0.4617968,11.4999961" id="路径"></path>
            </g>
        </g>
    </g>
</svg>