<?xml version="1.0" encoding="UTF-8"?>
<svg width="97px" height="97px" viewBox="0 0 97 97" version="1.1" xmlns="http://www.w3.org/2000/svg" xmlns:xlink="http://www.w3.org/1999/xlink">
    <!-- Generator: Sketch 53.2 (72643) - https://sketchapp.com -->
    <title>hcl 左右切换</title>
    <desc>Created with Sketch.</desc>
    <g id="Page-1" stroke="none" stroke-width="1" fill="none" fill-rule="evenodd" opacity="0.0535481771">
        <g id="影像内页" transform="translate(-113.000000, -443.000000)" fill="#FFFFFF" fill-rule="nonzero">
            <g id="hcl-左右切换" transform="translate(113.000000, 443.000000)">
                <path d="M48.5,0 C21.728,0 0,21.728 0,48.5 C0,75.272 21.728,97 48.5,97 C75.272,97 97,75.272 97,48.5 C97,21.728 75.272,0 48.5,0 Z M61.304,76.3251429 C60.14,77.4891429 58.2,77.5445714 57.036,76.3805714 L31.7605714,51.1051429 C31.6497143,50.9942857 31.5388571,50.8834286 31.428,50.6617143 C30.8182857,50.052 30.5411429,49.276 30.5411429,48.5 C30.5411429,47.724 30.8182857,46.8925714 31.428,46.2828571 L31.7605714,45.9502857 L57.036,20.6748571 C58.2,19.5108571 60.0845714,19.5108571 61.304,20.7302857 C62.468,21.8942857 62.5234286,23.8342857 61.3594286,24.9982857 L37.7468571,48.5 L61.304,72.0571429 C62.468,73.2211429 62.468,75.1611429 61.304,76.3251429 L61.304,76.3251429 Z" id="形状"></path>
            </g>
        </g>
    </g>
</svg>